Coordinates
version=1
nRows=22
nColumns=38
inDegrees=no

Units are S.I. units (second, meters, Newtons, ...)
If the header above contains a line with 'inDegrees', this indicates whether rotational values are in degrees (yes) or radians (no).

endheader
time	pelvis_tilt	pelvis_list	pelvis_rotation	pelvis_tx	pelvis_ty	pelvis_tz	hip_flexion_r	hip_adduction_r	hip_rotation_r	knee_angle_r	ankle_angle_r	subtalar_angle_r	mtp_angle_r	hip_flexion_l	hip_adduction_l	hip_rotation_l	knee_angle_l	ankle_angle_l	subtalar_angle_l	mtp_angle_l	lumbar_extension	lumbar_bending	lumbar_rotation	arm_flex_r	arm_add_r	arm_rot_r	elbow_flex_r	pro_sup_r	wrist_flex_r	wrist_dev_r	arm_flex_l	arm_add_l	arm_rot_l	elbow_flex_l	pro_sup_l	wrist_flex_l	wrist_dev_l
0.99	-0.0940411	-0.0964139	-0.0551818	0.91547	0.99454	-0.350351	0.528021	0.144099	-0.159363	-0.754406	0.429214	-0.1	-0.00207031	0.293446	-0.225896	-0.193272	-1.82977	0.250321	0.1	-0.00152637	-0.164566	0.178084	0.142232	-0.465231	-0.43056	-0.210435	1.66933	1.53204	5.73056e-06	8.11363e-06	-0.531658	-0.36373	-0.0328006	2.08895	1.65314	9.36602e-06	5.24658e-06
1	-0.0993897	-0.0892514	-0.0553229	0.911471	0.991677	-0.349635	0.507693	0.140395	-0.143998	-0.802198	0.505801	-0.1	-0.00207031	0.378324	-0.2164	-0.172247	-1.86394	0.280023	0.1	-0.00152637	-0.168342	0.165368	0.165089	-0.423268	-0.427356	-0.208737	1.67709	1.54017	5.73056e-06	8.11363e-06	-0.547633	-0.363703	-0.0505367	2.06263	1.64785	9.36602e-06	5.24658e-06
1.01	-0.105254	-0.0775768	-0.0534859	0.907842	0.99027	-0.349256	0.477584	0.129999	-0.13297	-0.829044	0.571215	-0.1	-0.00207031	0.462206	-0.199052	-0.153287	-1.88113	0.306526	0.1	-0.00152637	-0.169176	0.148061	0.186024	-0.385209	-0.421409	-0.206115	1.6948	1.55012	5.73056e-06	8.11363e-06	-0.563465	-0.361776	-0.0637914	2.04111	1.64046	9.36602e-06	5.24658e-06
1.02	-0.111462	-0.0617181	-0.0492972	0.904919	0.990446	-0.349235	0.437401	0.113052	-0.12693	-0.834317	0.619492	-0.1	-0.00207031	0.54277	-0.1746	-0.137221	-1.88054	0.328576	0.1	-0.00152637	-0.166521	0.126687	0.20453	-0.352943	-0.413123	-0.201795	1.72324	1.56185	5.73056e-06	8.11363e-06	-0.580125	-0.358139	-0.0726875	2.02583	1.63165	9.36602e-06	5.24658e-06
1.03	-0.11785	-0.0423507	-0.0427456	0.902962	0.992222	-0.349567	0.387697	0.0904076	-0.126127	-0.819147	0.645332	-0.1	-0.00207031	0.617825	-0.144433	-0.12465	-1.86198	0.345455	0.1	-0.00152637	-0.1602	0.102038	0.220489	-0.327756	-0.402954	-0.195034	1.76221	1.57549	5.73056e-06	8.11363e-06	-0.598467	-0.352968	-0.0778512	2.0177	1.62263	9.36602e-06	5.24658e-06
1.04	-0.124207	-0.0204047	-0.0341598	0.902124	0.995521	-0.350218	0.32966	0.0634994	-0.1304	-0.786012	0.644582	-0.1	-0.00207031	0.685383	-0.110406	-0.11592	-1.82578	0.357118	0.1	-0.00152637	-0.150497	0.0750648	0.234092	-0.310163	-0.391382	-0.185157	1.81044	1.59134	5.73056e-06	8.11363e-06	-0.61912	-0.346381	-0.0802848	2.01704	1.61486	9.36602e-06	5.24658e-06
1.05	-0.130242	0.00302587	-0.0241053	0.902431	1.0002	-0.351134	0.264941	0.0341298	-0.139294	-0.738384	0.614933	-0.1	-0.00207031	0.74374	-0.074621	-0.111163	-1.77266	0.364142	0.1	-0.00152637	-0.138123	0.0468041	0.24571	-0.299921	-0.378873	-0.171634	1.86581	1.60982	5.73056e-06	8.11363e-06	-0.642403	-0.338435	-0.081155	2.02345	1.6096	9.36602e-06	5.24658e-06
1.06	-0.135609	0.0267505	-0.0132447	0.903806	1.00606	-0.352236	0.195551	0.00423679	-0.152224	-0.68049	0.556664	-0.1	-0.00207031	0.791576	-0.0392167	-0.110387	-1.70363	0.367473	0.1	-0.00152637	-0.124087	0.0183471	0.25575	-0.29619	-0.365856	-0.154168	1.92562	1.63121	5.73056e-06	8.11363e-06	-0.668288	-0.329159	-0.0815576	2.03593	1.6074	9.36602e-06	5.24658e-06
1.07	-0.139966	0.0495257	-0.0022171	0.906084	1.01284	-0.353429	0.123828	-0.0242758	-0.168531	-0.617177	0.473092	-0.1	-0.00207031	0.828049	-0.00621936	-0.113644	-1.61995	0.368116	0.1	-0.00152637	-0.109495	-0.0091576	0.264562	-0.297775	-0.352713	-0.132775	1.987	1.65545	5.73056e-06	8.11363e-06	-0.696395	-0.318598	-0.0823334	2.05304	1.60798	9.36602e-06	5.24658e-06
1.08	-0.143055	0.0700862	0.00843674	0.90904	1.02021	-0.354605	0.0523935	-0.0496568	-0.187419	-0.553802	0.370529	-0.1	-0.00207031	0.852881	0.0225837	-0.121199	-1.52311	0.366802	0.1	-0.00152637	-0.0953659	-0.0345201	0.272395	-0.303369	-0.339782	-0.107835	2.04723	1.6819	5.73056e-06	8.11363e-06	-0.726036	-0.306851	-0.0839766	2.07312	1.61021	9.36602e-06	5.24658e-06
1.09	-0.144766	0.0872198	0.0183033	0.912408	1.02778	-0.35566	-0.0159734	-0.0704042	-0.207812	-0.496047	0.257659	-0.1	-0.00207031	0.866375	0.0457344	-0.133686	-1.4149	0.363817	0.1	-0.00152637	-0.0824993	-0.0565702	0.279396	-0.311749	-0.327362	-0.0800867	2.10398	1.70943	5.73056e-06	8.11363e-06	-0.75627	-0.294093	-0.0866441	2.09453	1.61252	9.36602e-06	5.24658e-06
1.1	-0.145133	0.0999056	0.0271029	0.91591	1.03517	-0.356503	-0.078567	-0.0853907	-0.228294	-0.449534	0.144366	-0.1	-0.00207031	0.869361	0.0622273	-0.152152	-1.2975	0.358965	0.1	-0.00152637	-0.0714379	-0.0742826	0.285626	-0.321911	-0.3157	-0.0505807	2.15546	1.73651	5.73056e-06	8.11363e-06	-0.785996	-0.280578	-0.090232	2.11575	1.61337	9.36602e-06	5.24658e-06
1.11	-0.14429	0.107482	0.0346926	0.919286	1.04205	-0.357062	-0.133058	-0.0940299	-0.247246	-0.419268	0.0402174	-0.1	-0.00207031	0.86309	0.071669	-0.177923	-1.17353	0.35166	0.1	-0.00152637	-0.0624916	-0.0869579	0.291069	-0.333143	-0.304981	-0.0205952	2.20043	1.7616	5.73056e-06	8.11363e-06	-0.814033	-0.266638	-0.0944808	2.13551	1.61161	9.36602e-06	5.24658e-06
1.12	-0.142406	0.109801	0.0410778	0.922334	1.04822	-0.357298	-0.177771	-0.0964217	-0.263195	-0.409041	-0.0470849	-0.1	-0.00207031	0.849105	0.07439	-0.212332	-1.04612	0.341212	0.1	-0.00152637	-0.0558056	-0.0943943	0.295625	-0.345044	-0.295295	0.00846908	2.23817	1.78334	5.73056e-06	8.11363e-06	-0.839207	-0.25268	-0.0990763	2.15282	1.60679	9.36602e-06	5.24658e-06
1.13	-0.13964	0.107303	0.04643	0.924935	1.05355	-0.357215	-0.211849	-0.0934071	-0.275271	-0.420986	-0.112846	-0.1	-0.00207031	0.829107	0.0714784	-0.256267	-0.918856	0.327122	0.1	-0.00152637	-0.0514408	-0.0969769	0.299104	-0.357497	-0.286626	0.0352072	2.26839	1.80081	5.73056e-06	8.11363e-06	-0.86043	-0.239173	-0.103728	2.16695	1.59915	9.36602e-06	5.24658e-06
1.14	-0.136099	0.100977	0.0510794	0.927044	1.05796	-0.356859	-0.235252	-0.0864774	-0.28347	-0.455428	-0.155934	-0.1	-0.00207031	0.80483	0.0646428	-0.309721	-0.795681	0.309394	0.1	-0.00152637	-0.0494243	-0.0956521	0.301227	-0.370609	-0.278848	0.0583296	2.29109	1.81352	5.73056e-06	8.11363e-06	-0.876771	-0.226638	-0.108217	2.17743	1.58948	9.36602e-06	5.24658e-06
1.15	-0.131872	0.0921955	0.0554608	0.928661	1.06144	-0.356305	-0.248589	-0.0775539	-0.288609	-0.511061	-0.178497	-0.1	-0.00207031	0.777946	0.0559748	-0.371363	-0.680603	0.288573	0.1	-0.00152637	-0.0497608	-0.0917927	0.301672	-0.384616	-0.271758	0.0767759	2.30652	1.82133	5.73056e-06	8.11363e-06	-0.887523	-0.215611	-0.112415	2.18401	1.57886	9.36602e-06	5.24658e-06
1.16	-0.127052	0.0825365	0.0600371	0.929816	1.06398	-0.355656	-0.25284	-0.0686538	-0.29197	-0.585345	-0.184967	-0.1	-0.00207031	0.749988	0.0476098	-0.4383	-0.577358	0.265589	0.1	-0.00152637	-0.0523894	-0.0869475	0.300137	-0.399792	-0.265132	0.089805	2.31505	1.82441	5.73056e-06	8.11363e-06	-0.892251	-0.206596	-0.116276	2.18664	1.5684	9.36602e-06	5.24658e-06
1.17	-0.121783	0.0734933	0.0651854	0.930539	1.0656	-0.355021	-0.249075	-0.0615292	-0.294782	-0.674997	-0.180712	-0.1	-0.00207031	0.72229	0.0413446	-0.506278	-0.489043	0.241586	0.1	-0.00152637	-0.0571319	-0.0825819	0.29642	-0.416352	-0.258786	0.0970445	2.31716	1.82305	5.73056e-06	8.11363e-06	-0.89082	-0.200002	-0.119817	2.18541	1.55894	9.36602e-06	5.24658e-06
1.18	-0.116291	0.0662245	0.0711057	0.930851	1.0663	-0.354492	-0.238223	-0.0573559	-0.29779	-0.776455	-0.17075	-0.1	-0.00207031	0.69592	0.038352	-0.570134	-0.417803	0.217728	0.1	-0.00152637	-0.0636676	-0.0798257	0.290465	-0.434383	-0.252637	0.0984908	2.31341	1.81761	5.73056e-06	8.11363e-06	-0.883388	-0.196089	-0.123078	2.18056	1.55096	9.36602e-06	5.24658e-06
1.19	-0.110874	0.0613753	0.0777707	0.93076	1.06606	-0.354106	-0.22094	-0.0565646	-0.301078	-0.886245	-0.15888	-0.1	-0.00207031	0.671638	0.0389879	-0.624664	-0.364699	0.19522	0.1	-0.00152637	-0.0715463	-0.0792915	0.28238	-0.453806	-0.246738	0.0944629	2.3044	1.80852	5.73056e-06	8.11363e-06	-0.870368	-0.194934	-0.1261	2.1724	1.54449	9.36602e-06	5.24658e-06
1.2	-0.105889	0.059039	0.0849336	0.930275	1.06489	-0.353856	-0.197587	-0.0588568	-0.304161	-1.00124	-0.147317	-0.1	-0.00207031	0.649881	0.0428321	-0.665334	-0.329736	0.175328	0.1	-0.00152637	-0.0802426	-0.081005	0.272404	-0.474368	-0.241285	0.0855295	2.29075	1.79617	5.73056e-06	8.11363e-06	-0.852373	-0.196417	-0.128915	2.16131	1.53925	9.36602e-06	5.24658e-06
